<svg preserveAspectRatio="none" overflow="visible" style="display: block;" width="23.0729" height="23.0729" viewBox="0 0 23.0729 23.0729" fill="none" xmlns="http://www.w3.org/2000/svg">
<g id="Group 2147224618">
<path id="Vector" d="M11.5391 11.5391L3.26172 3.26172" stroke="#0099D1" stroke-width="1.5"/>
<path id="Vector_2" d="M11.5391 11.5391L19.8164 3.26172" stroke="#0099D1" stroke-width="1.5"/>
<path id="Vector_3" d="M11.5391 11.5391L3.26172 19.8164" stroke="#0099D1" stroke-width="1.5"/>
<path id="Vector_4" d="M11.5391 11.5391L19.8164 19.8164" stroke="#0099D1" stroke-width="1.5"/>
<path id="Vector_5" d="M3.25911 6.01823C4.78293 6.01823 6.01823 4.78293 6.01823 3.25911C6.01823 1.7353 4.78293 0.5 3.25911 0.5C1.7353 0.5 0.5 1.7353 0.5 3.25911C0.5 4.78293 1.7353 6.01823 3.25911 6.01823Z" fill="#0099D1" stroke="#0099D1"/>
<path id="Vector_6" d="M19.8138 6.01823C21.3376 6.01823 22.5729 4.78293 22.5729 3.25911C22.5729 1.7353 21.3376 0.5 19.8138 0.5C18.29 0.5 17.0547 1.7353 17.0547 3.25911C17.0547 4.78293 18.29 6.01823 19.8138 6.01823Z" fill="#0099D1" stroke="#0099D1"/>
<path id="Vector_7" d="M3.25911 22.5729C4.78293 22.5729 6.01823 21.3376 6.01823 19.8138C6.01823 18.29 4.78293 17.0547 3.25911 17.0547C1.7353 17.0547 0.5 18.29 0.5 19.8138C0.5 21.3376 1.7353 22.5729 3.25911 22.5729Z" fill="#0099D1" stroke="#0099D1"/>
<path id="Vector_8" d="M19.8138 22.5729C21.3376 22.5729 22.5729 21.3376 22.5729 19.8138C22.5729 18.29 21.3376 17.0547 19.8138 17.0547C18.29 17.0547 17.0547 18.29 17.0547 19.8138C17.0547 21.3376 18.29 22.5729 19.8138 22.5729Z" fill="#0099D1" stroke="#0099D1"/>
<path id="Vector_9" d="M11.536 15.3298C13.6312 15.3298 15.3298 13.6312 15.3298 11.536C15.3298 9.44072 13.6312 7.74219 11.536 7.74219C9.44072 7.74219 7.74219 9.44072 7.74219 11.536C7.74219 13.6312 9.44072 15.3298 11.536 15.3298Z" fill="#00C4B3"/>
</g>
</svg>
