<svg width="1440" height="439" viewBox="0 0 1440 439" fill="none" xmlns="http://www.w3.org/2000/svg">
<g clip-path="url(#clip0_5300_431395)">
<g clip-path="url(#clip1_5300_431395)">
<path d="M23.6836 26V38" stroke="#DDE1E5" stroke-opacity="0.75" stroke-linecap="round"/>
<path d="M17.6836 32H29.6836" stroke="#DDE1E5" stroke-opacity="0.75" stroke-linecap="round"/>
<path d="M105.684 26V38" stroke="#DDE1E5" stroke-opacity="0.75" stroke-linecap="round"/>
<path d="M99.6836 32H111.684" stroke="#DDE1E5" stroke-opacity="0.75" stroke-linecap="round"/>
<path d="M187.684 26V38" stroke="#DDE1E5" stroke-opacity="0.75" stroke-linecap="round"/>
<path d="M181.684 32H193.684" stroke="#DDE1E5" stroke-opacity="0.75" stroke-linecap="round"/>
<path d="M269.684 26V38" stroke="#DDE1E5" stroke-opacity="0.75" stroke-linecap="round"/>
<path d="M263.684 32H275.684" stroke="#DDE1E5" stroke-opacity="0.75" stroke-linecap="round"/>
<path d="M351.684 26V38" stroke="#DDE1E5" stroke-opacity="0.75" stroke-linecap="round"/>
<path d="M345.684 32H357.684" stroke="#DDE1E5" stroke-opacity="0.75" stroke-linecap="round"/>
<path d="M433.684 26V38" stroke="#DDE1E5" stroke-opacity="0.75" stroke-linecap="round"/>
<path d="M427.684 32H439.684" stroke="#DDE1E5" stroke-opacity="0.75" stroke-linecap="round"/>
<path d="M515.684 26V38" stroke="#DDE1E5" stroke-opacity="0.75" stroke-linecap="round"/>
<path d="M509.684 32H521.684" stroke="#DDE1E5" stroke-opacity="0.75" stroke-linecap="round"/>
<path d="M597.684 26V38" stroke="#DDE1E5" stroke-opacity="0.75" stroke-linecap="round"/>
<path d="M591.684 32H603.684" stroke="#DDE1E5" stroke-opacity="0.75" stroke-linecap="round"/>
<path d="M679.684 26V38" stroke="#DDE1E5" stroke-opacity="0.75" stroke-linecap="round"/>
<path d="M673.684 32H685.684" stroke="#DDE1E5" stroke-opacity="0.75" stroke-linecap="round"/>
<path d="M761.684 26V38" stroke="#DDE1E5" stroke-opacity="0.75" stroke-linecap="round"/>
<path d="M755.684 32H767.684" stroke="#DDE1E5" stroke-opacity="0.75" stroke-linecap="round"/>
<path d="M843.684 26V38" stroke="#DDE1E5" stroke-opacity="0.75" stroke-linecap="round"/>
<path d="M837.684 32H849.684" stroke="#DDE1E5" stroke-opacity="0.75" stroke-linecap="round"/>
<path d="M925.684 26V38" stroke="#DDE1E5" stroke-opacity="0.75" stroke-linecap="round"/>
<path d="M919.684 32H931.684" stroke="#DDE1E5" stroke-opacity="0.75" stroke-linecap="round"/>
<path d="M1007.68 26V38" stroke="#DDE1E5" stroke-opacity="0.75" stroke-linecap="round"/>
<path d="M1001.68 32H1013.68" stroke="#DDE1E5" stroke-opacity="0.75" stroke-linecap="round"/>
<path d="M1089.68 26V38" stroke="#DDE1E5" stroke-opacity="0.75" stroke-linecap="round"/>
<path d="M1083.68 32H1095.68" stroke="#DDE1E5" stroke-opacity="0.75" stroke-linecap="round"/>
<path d="M1171.68 26V38" stroke="#DDE1E5" stroke-opacity="0.75" stroke-linecap="round"/>
<path d="M1165.68 32H1177.68" stroke="#DDE1E5" stroke-opacity="0.75" stroke-linecap="round"/>
<path d="M1253.68 26V38" stroke="#DDE1E5" stroke-opacity="0.75" stroke-linecap="round"/>
<path d="M1247.68 32H1259.68" stroke="#DDE1E5" stroke-opacity="0.75" stroke-linecap="round"/>
<path d="M1335.68 26V38" stroke="#DDE1E5" stroke-opacity="0.75" stroke-linecap="round"/>
<path d="M1329.68 32H1341.68" stroke="#DDE1E5" stroke-opacity="0.75" stroke-linecap="round"/>
<path d="M1417.68 26V38" stroke="#DDE1E5" stroke-opacity="0.75" stroke-linecap="round"/>
<path d="M1411.68 32H1423.68" stroke="#DDE1E5" stroke-opacity="0.75" stroke-linecap="round"/>
</g>
<g clip-path="url(#clip2_5300_431395)">
<path d="M23.6836 82V94" stroke="#DDE1E5" stroke-opacity="0.75" stroke-linecap="round"/>
<path d="M17.6836 88H29.6836" stroke="#DDE1E5" stroke-opacity="0.75" stroke-linecap="round"/>
<path d="M105.684 82V94" stroke="#DDE1E5" stroke-opacity="0.75" stroke-linecap="round"/>
<path d="M99.6836 88H111.684" stroke="#DDE1E5" stroke-opacity="0.75" stroke-linecap="round"/>
<path d="M187.684 82V94" stroke="#DDE1E5" stroke-opacity="0.75" stroke-linecap="round"/>
<path d="M181.684 88H193.684" stroke="#DDE1E5" stroke-opacity="0.75" stroke-linecap="round"/>
<path d="M269.684 82V94" stroke="#DDE1E5" stroke-opacity="0.75" stroke-linecap="round"/>
<path d="M263.684 88H275.684" stroke="#DDE1E5" stroke-opacity="0.75" stroke-linecap="round"/>
<path d="M351.684 82V94" stroke="#DDE1E5" stroke-opacity="0.75" stroke-linecap="round"/>
<path d="M345.684 88H357.684" stroke="#DDE1E5" stroke-opacity="0.75" stroke-linecap="round"/>
<path d="M433.684 82V94" stroke="#DDE1E5" stroke-opacity="0.75" stroke-linecap="round"/>
<path d="M427.684 88H439.684" stroke="#DDE1E5" stroke-opacity="0.75" stroke-linecap="round"/>
<path d="M515.684 82V94" stroke="#DDE1E5" stroke-opacity="0.75" stroke-linecap="round"/>
<path d="M509.684 88H521.684" stroke="#DDE1E5" stroke-opacity="0.75" stroke-linecap="round"/>
<path d="M597.684 82V94" stroke="#DDE1E5" stroke-opacity="0.75" stroke-linecap="round"/>
<path d="M591.684 88H603.684" stroke="#DDE1E5" stroke-opacity="0.75" stroke-linecap="round"/>
<path d="M679.684 82V94" stroke="#DDE1E5" stroke-opacity="0.75" stroke-linecap="round"/>
<path d="M673.684 88H685.684" stroke="#DDE1E5" stroke-opacity="0.75" stroke-linecap="round"/>
<path d="M761.684 82V94" stroke="#DDE1E5" stroke-opacity="0.75" stroke-linecap="round"/>
<path d="M755.684 88H767.684" stroke="#DDE1E5" stroke-opacity="0.75" stroke-linecap="round"/>
<path d="M843.684 82V94" stroke="#DDE1E5" stroke-opacity="0.75" stroke-linecap="round"/>
<path d="M837.684 88H849.684" stroke="#DDE1E5" stroke-opacity="0.75" stroke-linecap="round"/>
<path d="M925.684 82V94" stroke="#DDE1E5" stroke-opacity="0.75" stroke-linecap="round"/>
<path d="M919.684 88H931.684" stroke="#DDE1E5" stroke-opacity="0.75" stroke-linecap="round"/>
<path d="M1007.68 82V94" stroke="#DDE1E5" stroke-opacity="0.75" stroke-linecap="round"/>
<path d="M1001.68 88H1013.68" stroke="#DDE1E5" stroke-opacity="0.75" stroke-linecap="round"/>
<path d="M1089.68 82V94" stroke="#DDE1E5" stroke-opacity="0.75" stroke-linecap="round"/>
<path d="M1083.68 88H1095.68" stroke="#DDE1E5" stroke-opacity="0.75" stroke-linecap="round"/>
<path d="M1171.68 82V94" stroke="#DDE1E5" stroke-opacity="0.75" stroke-linecap="round"/>
<path d="M1165.68 88H1177.68" stroke="#DDE1E5" stroke-opacity="0.75" stroke-linecap="round"/>
<path d="M1253.68 82V94" stroke="#DDE1E5" stroke-opacity="0.75" stroke-linecap="round"/>
<path d="M1247.68 88H1259.68" stroke="#DDE1E5" stroke-opacity="0.75" stroke-linecap="round"/>
<path d="M1335.68 82V94" stroke="#DDE1E5" stroke-opacity="0.75" stroke-linecap="round"/>
<path d="M1329.68 88H1341.68" stroke="#DDE1E5" stroke-opacity="0.75" stroke-linecap="round"/>
<path d="M1417.68 82V94" stroke="#DDE1E5" stroke-opacity="0.75" stroke-linecap="round"/>
<path d="M1411.68 88H1423.68" stroke="#DDE1E5" stroke-opacity="0.75" stroke-linecap="round"/>
</g>
<g clip-path="url(#clip3_5300_431395)">
<path d="M23.6836 138V150" stroke="#DDE1E5" stroke-opacity="0.75" stroke-linecap="round"/>
<path d="M17.6836 144H29.6836" stroke="#DDE1E5" stroke-opacity="0.75" stroke-linecap="round"/>
<path d="M105.684 138V150" stroke="#DDE1E5" stroke-opacity="0.75" stroke-linecap="round"/>
<path d="M99.6836 144H111.684" stroke="#DDE1E5" stroke-opacity="0.75" stroke-linecap="round"/>
<path d="M187.684 138V150" stroke="#DDE1E5" stroke-opacity="0.75" stroke-linecap="round"/>
<path d="M181.684 144H193.684" stroke="#DDE1E5" stroke-opacity="0.75" stroke-linecap="round"/>
<path d="M269.684 138V150" stroke="#DDE1E5" stroke-opacity="0.75" stroke-linecap="round"/>
<path d="M263.684 144H275.684" stroke="#DDE1E5" stroke-opacity="0.75" stroke-linecap="round"/>
<path d="M351.684 138V150" stroke="#DDE1E5" stroke-opacity="0.75" stroke-linecap="round"/>
<path d="M345.684 144H357.684" stroke="#DDE1E5" stroke-opacity="0.75" stroke-linecap="round"/>
<path d="M433.684 138V150" stroke="#DDE1E5" stroke-opacity="0.75" stroke-linecap="round"/>
<path d="M427.684 144H439.684" stroke="#DDE1E5" stroke-opacity="0.75" stroke-linecap="round"/>
<path d="M515.684 138V150" stroke="#DDE1E5" stroke-opacity="0.75" stroke-linecap="round"/>
<path d="M509.684 144H521.684" stroke="#DDE1E5" stroke-opacity="0.75" stroke-linecap="round"/>
<path d="M597.684 138V150" stroke="#DDE1E5" stroke-opacity="0.75" stroke-linecap="round"/>
<path d="M591.684 144H603.684" stroke="#DDE1E5" stroke-opacity="0.75" stroke-linecap="round"/>
<path d="M679.684 138V150" stroke="#DDE1E5" stroke-opacity="0.75" stroke-linecap="round"/>
<path d="M673.684 144H685.684" stroke="#DDE1E5" stroke-opacity="0.75" stroke-linecap="round"/>
<path d="M761.684 138V150" stroke="#DDE1E5" stroke-opacity="0.75" stroke-linecap="round"/>
<path d="M755.684 144H767.684" stroke="#DDE1E5" stroke-opacity="0.75" stroke-linecap="round"/>
<path d="M843.684 138V150" stroke="#DDE1E5" stroke-opacity="0.75" stroke-linecap="round"/>
<path d="M837.684 144H849.684" stroke="#DDE1E5" stroke-opacity="0.75" stroke-linecap="round"/>
<path d="M925.684 138V150" stroke="#DDE1E5" stroke-opacity="0.75" stroke-linecap="round"/>
<path d="M919.684 144H931.684" stroke="#DDE1E5" stroke-opacity="0.75" stroke-linecap="round"/>
<path d="M1007.68 138V150" stroke="#DDE1E5" stroke-opacity="0.75" stroke-linecap="round"/>
<path d="M1001.68 144H1013.68" stroke="#DDE1E5" stroke-opacity="0.75" stroke-linecap="round"/>
<path d="M1089.68 138V150" stroke="#DDE1E5" stroke-opacity="0.75" stroke-linecap="round"/>
<path d="M1083.68 144H1095.68" stroke="#DDE1E5" stroke-opacity="0.75" stroke-linecap="round"/>
<path d="M1171.68 138V150" stroke="#DDE1E5" stroke-opacity="0.75" stroke-linecap="round"/>
<path d="M1165.68 144H1177.68" stroke="#DDE1E5" stroke-opacity="0.75" stroke-linecap="round"/>
<path d="M1253.68 138V150" stroke="#DDE1E5" stroke-opacity="0.75" stroke-linecap="round"/>
<path d="M1247.68 144H1259.68" stroke="#DDE1E5" stroke-opacity="0.75" stroke-linecap="round"/>
<path d="M1335.68 138V150" stroke="#DDE1E5" stroke-opacity="0.75" stroke-linecap="round"/>
<path d="M1329.68 144H1341.68" stroke="#DDE1E5" stroke-opacity="0.75" stroke-linecap="round"/>
<path d="M1417.68 138V150" stroke="#DDE1E5" stroke-opacity="0.75" stroke-linecap="round"/>
<path d="M1411.68 144H1423.68" stroke="#DDE1E5" stroke-opacity="0.75" stroke-linecap="round"/>
</g>
<g clip-path="url(#clip4_5300_431395)">
<path d="M23.6836 194V206" stroke="#DDE1E5" stroke-opacity="0.75" stroke-linecap="round"/>
<path d="M17.6836 200H29.6836" stroke="#DDE1E5" stroke-opacity="0.75" stroke-linecap="round"/>
<path d="M105.684 194V206" stroke="#DDE1E5" stroke-opacity="0.75" stroke-linecap="round"/>
<path d="M99.6836 200H111.684" stroke="#DDE1E5" stroke-opacity="0.75" stroke-linecap="round"/>
<path d="M187.684 194V206" stroke="#DDE1E5" stroke-opacity="0.75" stroke-linecap="round"/>
<path d="M181.684 200H193.684" stroke="#DDE1E5" stroke-opacity="0.75" stroke-linecap="round"/>
<path d="M269.684 194V206" stroke="#DDE1E5" stroke-opacity="0.75" stroke-linecap="round"/>
<path d="M263.684 200H275.684" stroke="#DDE1E5" stroke-opacity="0.75" stroke-linecap="round"/>
<path d="M351.684 194V206" stroke="#DDE1E5" stroke-opacity="0.75" stroke-linecap="round"/>
<path d="M345.684 200H357.684" stroke="#DDE1E5" stroke-opacity="0.75" stroke-linecap="round"/>
<path d="M433.684 194V206" stroke="#DDE1E5" stroke-opacity="0.75" stroke-linecap="round"/>
<path d="M427.684 200H439.684" stroke="#DDE1E5" stroke-opacity="0.75" stroke-linecap="round"/>
<path d="M515.684 194V206" stroke="#DDE1E5" stroke-opacity="0.75" stroke-linecap="round"/>
<path d="M509.684 200H521.684" stroke="#DDE1E5" stroke-opacity="0.75" stroke-linecap="round"/>
<path d="M597.684 194V206" stroke="#DDE1E5" stroke-opacity="0.75" stroke-linecap="round"/>
<path d="M591.684 200H603.684" stroke="#DDE1E5" stroke-opacity="0.75" stroke-linecap="round"/>
<path d="M679.684 194V206" stroke="#DDE1E5" stroke-opacity="0.75" stroke-linecap="round"/>
<path d="M673.684 200H685.684" stroke="#DDE1E5" stroke-opacity="0.75" stroke-linecap="round"/>
<path d="M761.684 194V206" stroke="#DDE1E5" stroke-opacity="0.75" stroke-linecap="round"/>
<path d="M755.684 200H767.684" stroke="#DDE1E5" stroke-opacity="0.75" stroke-linecap="round"/>
<path d="M843.684 194V206" stroke="#DDE1E5" stroke-opacity="0.75" stroke-linecap="round"/>
<path d="M837.684 200H849.684" stroke="#DDE1E5" stroke-opacity="0.75" stroke-linecap="round"/>
<path d="M925.684 194V206" stroke="#DDE1E5" stroke-opacity="0.75" stroke-linecap="round"/>
<path d="M919.684 200H931.684" stroke="#DDE1E5" stroke-opacity="0.75" stroke-linecap="round"/>
<path d="M1007.68 194V206" stroke="#DDE1E5" stroke-opacity="0.75" stroke-linecap="round"/>
<path d="M1001.68 200H1013.68" stroke="#DDE1E5" stroke-opacity="0.75" stroke-linecap="round"/>
<path d="M1089.68 194V206" stroke="#DDE1E5" stroke-opacity="0.75" stroke-linecap="round"/>
<path d="M1083.68 200H1095.68" stroke="#DDE1E5" stroke-opacity="0.75" stroke-linecap="round"/>
<path d="M1171.68 194V206" stroke="#DDE1E5" stroke-opacity="0.75" stroke-linecap="round"/>
<path d="M1165.68 200H1177.68" stroke="#DDE1E5" stroke-opacity="0.75" stroke-linecap="round"/>
<path d="M1253.68 194V206" stroke="#DDE1E5" stroke-opacity="0.75" stroke-linecap="round"/>
<path d="M1247.68 200H1259.68" stroke="#DDE1E5" stroke-opacity="0.75" stroke-linecap="round"/>
<path d="M1335.68 194V206" stroke="#DDE1E5" stroke-opacity="0.75" stroke-linecap="round"/>
<path d="M1329.68 200H1341.68" stroke="#DDE1E5" stroke-opacity="0.75" stroke-linecap="round"/>
<path d="M1417.68 194V206" stroke="#DDE1E5" stroke-opacity="0.75" stroke-linecap="round"/>
<path d="M1411.68 200H1423.68" stroke="#DDE1E5" stroke-opacity="0.75" stroke-linecap="round"/>
</g>
<g clip-path="url(#clip5_5300_431395)">
<path d="M23.6836 250V262" stroke="#DDE1E5" stroke-opacity="0.75" stroke-linecap="round"/>
<path d="M17.6836 256H29.6836" stroke="#DDE1E5" stroke-opacity="0.75" stroke-linecap="round"/>
<path d="M105.684 250V262" stroke="#DDE1E5" stroke-opacity="0.75" stroke-linecap="round"/>
<path d="M99.6836 256H111.684" stroke="#DDE1E5" stroke-opacity="0.75" stroke-linecap="round"/>
<path d="M187.684 250V262" stroke="#DDE1E5" stroke-opacity="0.75" stroke-linecap="round"/>
<path d="M181.684 256H193.684" stroke="#DDE1E5" stroke-opacity="0.75" stroke-linecap="round"/>
<path d="M269.684 250V262" stroke="#DDE1E5" stroke-opacity="0.75" stroke-linecap="round"/>
<path d="M263.684 256H275.684" stroke="#DDE1E5" stroke-opacity="0.75" stroke-linecap="round"/>
<path d="M351.684 250V262" stroke="#DDE1E5" stroke-opacity="0.75" stroke-linecap="round"/>
<path d="M345.684 256H357.684" stroke="#DDE1E5" stroke-opacity="0.75" stroke-linecap="round"/>
<path d="M433.684 250V262" stroke="#DDE1E5" stroke-opacity="0.75" stroke-linecap="round"/>
<path d="M427.684 256H439.684" stroke="#DDE1E5" stroke-opacity="0.75" stroke-linecap="round"/>
<path d="M515.684 250V262" stroke="#DDE1E5" stroke-opacity="0.75" stroke-linecap="round"/>
<path d="M509.684 256H521.684" stroke="#DDE1E5" stroke-opacity="0.75" stroke-linecap="round"/>
<path d="M597.684 250V262" stroke="#DDE1E5" stroke-opacity="0.75" stroke-linecap="round"/>
<path d="M591.684 256H603.684" stroke="#DDE1E5" stroke-opacity="0.75" stroke-linecap="round"/>
<path d="M679.684 250V262" stroke="#DDE1E5" stroke-opacity="0.75" stroke-linecap="round"/>
<path d="M673.684 256H685.684" stroke="#DDE1E5" stroke-opacity="0.75" stroke-linecap="round"/>
<path d="M761.684 250V262" stroke="#DDE1E5" stroke-opacity="0.75" stroke-linecap="round"/>
<path d="M755.684 256H767.684" stroke="#DDE1E5" stroke-opacity="0.75" stroke-linecap="round"/>
<path d="M843.684 250V262" stroke="#DDE1E5" stroke-opacity="0.75" stroke-linecap="round"/>
<path d="M837.684 256H849.684" stroke="#DDE1E5" stroke-opacity="0.75" stroke-linecap="round"/>
<path d="M925.684 250V262" stroke="#DDE1E5" stroke-opacity="0.75" stroke-linecap="round"/>
<path d="M919.684 256H931.684" stroke="#DDE1E5" stroke-opacity="0.75" stroke-linecap="round"/>
<path d="M1007.68 250V262" stroke="#DDE1E5" stroke-opacity="0.75" stroke-linecap="round"/>
<path d="M1001.68 256H1013.68" stroke="#DDE1E5" stroke-opacity="0.75" stroke-linecap="round"/>
<path d="M1089.68 250V262" stroke="#DDE1E5" stroke-opacity="0.75" stroke-linecap="round"/>
<path d="M1083.68 256H1095.68" stroke="#DDE1E5" stroke-opacity="0.75" stroke-linecap="round"/>
<path d="M1171.68 250V262" stroke="#DDE1E5" stroke-opacity="0.75" stroke-linecap="round"/>
<path d="M1165.68 256H1177.68" stroke="#DDE1E5" stroke-opacity="0.75" stroke-linecap="round"/>
<path d="M1253.68 250V262" stroke="#DDE1E5" stroke-opacity="0.75" stroke-linecap="round"/>
<path d="M1247.68 256H1259.68" stroke="#DDE1E5" stroke-opacity="0.75" stroke-linecap="round"/>
<path d="M1335.68 250V262" stroke="#DDE1E5" stroke-opacity="0.75" stroke-linecap="round"/>
<path d="M1329.68 256H1341.68" stroke="#DDE1E5" stroke-opacity="0.75" stroke-linecap="round"/>
<path d="M1417.68 250V262" stroke="#DDE1E5" stroke-opacity="0.75" stroke-linecap="round"/>
<path d="M1411.68 256H1423.68" stroke="#DDE1E5" stroke-opacity="0.75" stroke-linecap="round"/>
</g>
<g clip-path="url(#clip6_5300_431395)">
<path d="M23.6836 306V318" stroke="#DDE1E5" stroke-opacity="0.75" stroke-linecap="round"/>
<path d="M17.6836 312H29.6836" stroke="#DDE1E5" stroke-opacity="0.75" stroke-linecap="round"/>
<path d="M105.684 306V318" stroke="#DDE1E5" stroke-opacity="0.75" stroke-linecap="round"/>
<path d="M99.6836 312H111.684" stroke="#DDE1E5" stroke-opacity="0.75" stroke-linecap="round"/>
<path d="M187.684 306V318" stroke="#DDE1E5" stroke-opacity="0.75" stroke-linecap="round"/>
<path d="M181.684 312H193.684" stroke="#DDE1E5" stroke-opacity="0.75" stroke-linecap="round"/>
<path d="M269.684 306V318" stroke="#DDE1E5" stroke-opacity="0.75" stroke-linecap="round"/>
<path d="M263.684 312H275.684" stroke="#DDE1E5" stroke-opacity="0.75" stroke-linecap="round"/>
<path d="M351.684 306V318" stroke="#DDE1E5" stroke-opacity="0.75" stroke-linecap="round"/>
<path d="M345.684 312H357.684" stroke="#DDE1E5" stroke-opacity="0.75" stroke-linecap="round"/>
<path d="M433.684 306V318" stroke="#DDE1E5" stroke-opacity="0.75" stroke-linecap="round"/>
<path d="M427.684 312H439.684" stroke="#DDE1E5" stroke-opacity="0.75" stroke-linecap="round"/>
<path d="M515.684 306V318" stroke="#DDE1E5" stroke-opacity="0.75" stroke-linecap="round"/>
<path d="M509.684 312H521.684" stroke="#DDE1E5" stroke-opacity="0.75" stroke-linecap="round"/>
<path d="M597.684 306V318" stroke="#DDE1E5" stroke-opacity="0.75" stroke-linecap="round"/>
<path d="M591.684 312H603.684" stroke="#DDE1E5" stroke-opacity="0.75" stroke-linecap="round"/>
<path d="M679.684 306V318" stroke="#DDE1E5" stroke-opacity="0.75" stroke-linecap="round"/>
<path d="M673.684 312H685.684" stroke="#DDE1E5" stroke-opacity="0.75" stroke-linecap="round"/>
<path d="M761.684 306V318" stroke="#DDE1E5" stroke-opacity="0.75" stroke-linecap="round"/>
<path d="M755.684 312H767.684" stroke="#DDE1E5" stroke-opacity="0.75" stroke-linecap="round"/>
<path d="M843.684 306V318" stroke="#DDE1E5" stroke-opacity="0.75" stroke-linecap="round"/>
<path d="M837.684 312H849.684" stroke="#DDE1E5" stroke-opacity="0.75" stroke-linecap="round"/>
<path d="M925.684 306V318" stroke="#DDE1E5" stroke-opacity="0.75" stroke-linecap="round"/>
<path d="M919.684 312H931.684" stroke="#DDE1E5" stroke-opacity="0.75" stroke-linecap="round"/>
<path d="M1007.68 306V318" stroke="#DDE1E5" stroke-opacity="0.75" stroke-linecap="round"/>
<path d="M1001.68 312H1013.68" stroke="#DDE1E5" stroke-opacity="0.75" stroke-linecap="round"/>
<path d="M1089.68 306V318" stroke="#DDE1E5" stroke-opacity="0.75" stroke-linecap="round"/>
<path d="M1083.68 312H1095.68" stroke="#DDE1E5" stroke-opacity="0.75" stroke-linecap="round"/>
<path d="M1171.68 306V318" stroke="#DDE1E5" stroke-opacity="0.75" stroke-linecap="round"/>
<path d="M1165.68 312H1177.68" stroke="#DDE1E5" stroke-opacity="0.75" stroke-linecap="round"/>
<path d="M1253.68 306V318" stroke="#DDE1E5" stroke-opacity="0.75" stroke-linecap="round"/>
<path d="M1247.68 312H1259.68" stroke="#DDE1E5" stroke-opacity="0.75" stroke-linecap="round"/>
<path d="M1335.68 306V318" stroke="#DDE1E5" stroke-opacity="0.75" stroke-linecap="round"/>
<path d="M1329.68 312H1341.68" stroke="#DDE1E5" stroke-opacity="0.75" stroke-linecap="round"/>
<path d="M1417.68 306V318" stroke="#DDE1E5" stroke-opacity="0.75" stroke-linecap="round"/>
<path d="M1411.68 312H1423.68" stroke="#DDE1E5" stroke-opacity="0.75" stroke-linecap="round"/>
</g>
<g clip-path="url(#clip7_5300_431395)">
<path d="M23.6836 362V374" stroke="#DDE1E5" stroke-opacity="0.75" stroke-linecap="round"/>
<path d="M17.6836 368H29.6836" stroke="#DDE1E5" stroke-opacity="0.75" stroke-linecap="round"/>
<path d="M105.684 362V374" stroke="#DDE1E5" stroke-opacity="0.75" stroke-linecap="round"/>
<path d="M99.6836 368H111.684" stroke="#DDE1E5" stroke-opacity="0.75" stroke-linecap="round"/>
<path d="M187.684 362V374" stroke="#DDE1E5" stroke-opacity="0.75" stroke-linecap="round"/>
<path d="M181.684 368H193.684" stroke="#DDE1E5" stroke-opacity="0.75" stroke-linecap="round"/>
<path d="M269.684 362V374" stroke="#DDE1E5" stroke-opacity="0.75" stroke-linecap="round"/>
<path d="M263.684 368H275.684" stroke="#DDE1E5" stroke-opacity="0.75" stroke-linecap="round"/>
<path d="M351.684 362V374" stroke="#DDE1E5" stroke-opacity="0.75" stroke-linecap="round"/>
<path d="M345.684 368H357.684" stroke="#DDE1E5" stroke-opacity="0.75" stroke-linecap="round"/>
<path d="M433.684 362V374" stroke="#DDE1E5" stroke-opacity="0.75" stroke-linecap="round"/>
<path d="M427.684 368H439.684" stroke="#DDE1E5" stroke-opacity="0.75" stroke-linecap="round"/>
<path d="M515.684 362V374" stroke="#DDE1E5" stroke-opacity="0.75" stroke-linecap="round"/>
<path d="M509.684 368H521.684" stroke="#DDE1E5" stroke-opacity="0.75" stroke-linecap="round"/>
<path d="M597.684 362V374" stroke="#DDE1E5" stroke-opacity="0.75" stroke-linecap="round"/>
<path d="M591.684 368H603.684" stroke="#DDE1E5" stroke-opacity="0.75" stroke-linecap="round"/>
<path d="M679.684 362V374" stroke="#DDE1E5" stroke-opacity="0.75" stroke-linecap="round"/>
<path d="M673.684 368H685.684" stroke="#DDE1E5" stroke-opacity="0.75" stroke-linecap="round"/>
<path d="M761.684 362V374" stroke="#DDE1E5" stroke-opacity="0.75" stroke-linecap="round"/>
<path d="M755.684 368H767.684" stroke="#DDE1E5" stroke-opacity="0.75" stroke-linecap="round"/>
<path d="M843.684 362V374" stroke="#DDE1E5" stroke-opacity="0.75" stroke-linecap="round"/>
<path d="M837.684 368H849.684" stroke="#DDE1E5" stroke-opacity="0.75" stroke-linecap="round"/>
<path d="M925.684 362V374" stroke="#DDE1E5" stroke-opacity="0.75" stroke-linecap="round"/>
<path d="M919.684 368H931.684" stroke="#DDE1E5" stroke-opacity="0.75" stroke-linecap="round"/>
<path d="M1007.68 362V374" stroke="#DDE1E5" stroke-opacity="0.75" stroke-linecap="round"/>
<path d="M1001.68 368H1013.68" stroke="#DDE1E5" stroke-opacity="0.75" stroke-linecap="round"/>
<path d="M1089.68 362V374" stroke="#DDE1E5" stroke-opacity="0.75" stroke-linecap="round"/>
<path d="M1083.68 368H1095.68" stroke="#DDE1E5" stroke-opacity="0.75" stroke-linecap="round"/>
<path d="M1171.68 362V374" stroke="#DDE1E5" stroke-opacity="0.75" stroke-linecap="round"/>
<path d="M1165.68 368H1177.68" stroke="#DDE1E5" stroke-opacity="0.75" stroke-linecap="round"/>
<path d="M1253.68 362V374" stroke="#DDE1E5" stroke-opacity="0.75" stroke-linecap="round"/>
<path d="M1247.68 368H1259.68" stroke="#DDE1E5" stroke-opacity="0.75" stroke-linecap="round"/>
<path d="M1335.68 362V374" stroke="#DDE1E5" stroke-opacity="0.75" stroke-linecap="round"/>
<path d="M1329.68 368H1341.68" stroke="#DDE1E5" stroke-opacity="0.75" stroke-linecap="round"/>
<path d="M1417.68 362V374" stroke="#DDE1E5" stroke-opacity="0.75" stroke-linecap="round"/>
<path d="M1411.68 368H1423.68" stroke="#DDE1E5" stroke-opacity="0.75" stroke-linecap="round"/>
</g>
<g clip-path="url(#clip8_5300_431395)">
<path d="M23.6836 418V430" stroke="#DDE1E5" stroke-opacity="0.75" stroke-linecap="round"/>
<path d="M17.6836 424H29.6836" stroke="#DDE1E5" stroke-opacity="0.75" stroke-linecap="round"/>
<path d="M105.684 418V430" stroke="#DDE1E5" stroke-opacity="0.75" stroke-linecap="round"/>
<path d="M99.6836 424H111.684" stroke="#DDE1E5" stroke-opacity="0.75" stroke-linecap="round"/>
<path d="M187.684 418V430" stroke="#DDE1E5" stroke-opacity="0.75" stroke-linecap="round"/>
<path d="M181.684 424H193.684" stroke="#DDE1E5" stroke-opacity="0.75" stroke-linecap="round"/>
<path d="M269.684 418V430" stroke="#DDE1E5" stroke-opacity="0.75" stroke-linecap="round"/>
<path d="M263.684 424H275.684" stroke="#DDE1E5" stroke-opacity="0.75" stroke-linecap="round"/>
<path d="M351.684 418V430" stroke="#DDE1E5" stroke-opacity="0.75" stroke-linecap="round"/>
<path d="M345.684 424H357.684" stroke="#DDE1E5" stroke-opacity="0.75" stroke-linecap="round"/>
<path d="M433.684 418V430" stroke="#DDE1E5" stroke-opacity="0.75" stroke-linecap="round"/>
<path d="M427.684 424H439.684" stroke="#DDE1E5" stroke-opacity="0.75" stroke-linecap="round"/>
<path d="M515.684 418V430" stroke="#DDE1E5" stroke-opacity="0.75" stroke-linecap="round"/>
<path d="M509.684 424H521.684" stroke="#DDE1E5" stroke-opacity="0.75" stroke-linecap="round"/>
<path d="M597.684 418V430" stroke="#DDE1E5" stroke-opacity="0.75" stroke-linecap="round"/>
<path d="M591.684 424H603.684" stroke="#DDE1E5" stroke-opacity="0.75" stroke-linecap="round"/>
<path d="M679.684 418V430" stroke="#DDE1E5" stroke-opacity="0.75" stroke-linecap="round"/>
<path d="M673.684 424H685.684" stroke="#DDE1E5" stroke-opacity="0.75" stroke-linecap="round"/>
<path d="M761.684 418V430" stroke="#DDE1E5" stroke-opacity="0.75" stroke-linecap="round"/>
<path d="M755.684 424H767.684" stroke="#DDE1E5" stroke-opacity="0.75" stroke-linecap="round"/>
<path d="M843.684 418V430" stroke="#DDE1E5" stroke-opacity="0.75" stroke-linecap="round"/>
<path d="M837.684 424H849.684" stroke="#DDE1E5" stroke-opacity="0.75" stroke-linecap="round"/>
<path d="M925.684 418V430" stroke="#DDE1E5" stroke-opacity="0.75" stroke-linecap="round"/>
<path d="M919.684 424H931.684" stroke="#DDE1E5" stroke-opacity="0.75" stroke-linecap="round"/>
<path d="M1007.68 418V430" stroke="#DDE1E5" stroke-opacity="0.75" stroke-linecap="round"/>
<path d="M1001.68 424H1013.68" stroke="#DDE1E5" stroke-opacity="0.75" stroke-linecap="round"/>
<path d="M1089.68 418V430" stroke="#DDE1E5" stroke-opacity="0.75" stroke-linecap="round"/>
<path d="M1083.68 424H1095.68" stroke="#DDE1E5" stroke-opacity="0.75" stroke-linecap="round"/>
<path d="M1171.68 418V430" stroke="#DDE1E5" stroke-opacity="0.75" stroke-linecap="round"/>
<path d="M1165.68 424H1177.68" stroke="#DDE1E5" stroke-opacity="0.75" stroke-linecap="round"/>
<path d="M1253.68 418V430" stroke="#DDE1E5" stroke-opacity="0.75" stroke-linecap="round"/>
<path d="M1247.68 424H1259.68" stroke="#DDE1E5" stroke-opacity="0.75" stroke-linecap="round"/>
<path d="M1335.68 418V430" stroke="#DDE1E5" stroke-opacity="0.75" stroke-linecap="round"/>
<path d="M1329.68 424H1341.68" stroke="#DDE1E5" stroke-opacity="0.75" stroke-linecap="round"/>
<path d="M1417.68 418V430" stroke="#DDE1E5" stroke-opacity="0.75" stroke-linecap="round"/>
<path d="M1411.68 424H1423.68" stroke="#DDE1E5" stroke-opacity="0.75" stroke-linecap="round"/>
</g>
</g>
<defs>
<clipPath id="clip0_5300_431395">
<rect width="1920" height="1440" fill="white" transform="translate(-239.316 -380)"/>
</clipPath>
<clipPath id="clip1_5300_431395">
<rect width="1920" height="16" fill="white" transform="translate(-239.316 24)"/>
</clipPath>
<clipPath id="clip2_5300_431395">
<rect width="1920" height="16" fill="white" transform="translate(-239.316 80)"/>
</clipPath>
<clipPath id="clip3_5300_431395">
<rect width="1920" height="16" fill="white" transform="translate(-239.316 136)"/>
</clipPath>
<clipPath id="clip4_5300_431395">
<rect width="1920" height="16" fill="white" transform="translate(-239.316 192)"/>
</clipPath>
<clipPath id="clip5_5300_431395">
<rect width="1920" height="16" fill="white" transform="translate(-239.316 248)"/>
</clipPath>
<clipPath id="clip6_5300_431395">
<rect width="1920" height="16" fill="white" transform="translate(-239.316 304)"/>
</clipPath>
<clipPath id="clip7_5300_431395">
<rect width="1920" height="16" fill="white" transform="translate(-239.316 360)"/>
</clipPath>
<clipPath id="clip8_5300_431395">
<rect width="1920" height="16" fill="white" transform="translate(-239.316 416)"/>
</clipPath>
</defs>
</svg>
